<?xml version="1.0" encoding="UTF-8"?>
<svg width="19px" height="19px" viewBox="0 0 19 19" version="1.1" xmlns="http://www.w3.org/2000/svg" xmlns:xlink="http://www.w3.org/1999/xlink">
    <!-- Generator: Sketch 41.2 (35397) - http://www.bohemiancoding.com/sketch -->
    <title>Add_icon_form</title>
    <desc>Created with Sketch.</desc>
    <defs></defs>
    <g id="Contacts" stroke="none" stroke-width="1" fill="none" fill-rule="evenodd">
        <g id="Contacts-mob" transform="translate(-139.000000, -1422.000000)" fill="#F44312">
            <g id="Form" transform="translate(0.000000, 1066.000000)">
                <g id="Group-17" transform="translate(16.000000, 356.000000)">
                    <path d="M140.942693,1.04446009 C140.246602,0.34819666 139.407934,0 138.427338,0 L126.560118,0 C125.579522,0 124.740853,0.34819666 124.04446,1.04446009 C123.348197,1.74085341 123,2.57947827 123,3.56011818 L123,15.4272076 C123,16.4077609 123.348197,17.2464724 124.04446,17.9428657 C124.740853,18.639259 125.579522,18.9874557 126.560118,18.9874557 L138.427208,18.9874557 C139.407804,18.9874557 140.246472,18.639259 140.942563,17.9428657 C141.638956,17.2464724 141.987153,16.4078042 141.987153,15.4272076 L141.987153,3.56011818 C141.987109,2.57947827 141.638913,1.74072352 140.942693,1.04446009 Z M138.822815,10.2847907 C138.822815,10.4990256 138.744403,10.6846843 138.5881,10.8410307 C138.431321,10.997507 138.245835,11.0760483 138.031557,11.0760483 L134.076178,11.0760483 L134.076178,15.0316005 C134.076178,15.2458354 133.997507,15.4313209 133.840987,15.5878405 C133.684684,15.7445766 133.499069,15.8228148 133.284747,15.8228148 L131.702535,15.8228148 C131.4883,15.8228148 131.302858,15.7445766 131.146295,15.5878405 C130.989689,15.4313642 130.911364,15.2458787 130.911364,15.0316005 L130.911364,11.0760483 L126.955639,11.0760483 C126.741404,11.0760483 126.556048,10.9975503 126.399399,10.8410307 C126.242879,10.6847276 126.164554,10.4990689 126.164554,10.2847907 L126.164554,8.70240526 C126.164554,8.48817036 126.242879,8.30272815 126.399399,8.14616521 C126.556005,7.98955898 126.741361,7.91123421 126.955639,7.91123421 L130.911407,7.91123421 L130.911407,3.95563876 C130.911407,3.74136056 130.989732,3.55587504 131.146338,3.3993987 C131.302901,3.24274917 131.4883,3.16438111 131.702578,3.16438111 L133.284791,3.16438111 C133.499069,3.16438111 133.684684,3.24274917 133.841031,3.3993987 C133.997507,3.55587504 134.076221,3.74136056 134.076221,3.95563876 L134.076221,7.91127751 L138.0316,7.91127751 C138.245835,7.91127751 138.431321,7.98960228 138.588144,8.14620851 C138.744577,8.30272815 138.822858,8.48817036 138.822858,8.70244856 L138.822858,10.2847907 L138.822815,10.2847907 Z" id="Add_icon_form"></path>
                </g>
            </g>
        </g>
    </g>
</svg>
