<?xml version="1.0" encoding="UTF-8"?>
<svg width="130px" height="42px" viewBox="0 0 130 42" version="1.1" xmlns="http://www.w3.org/2000/svg" xmlns:xlink="http://www.w3.org/1999/xlink">
    <!-- Generator: Sketch 41.2 (35397) - http://www.bohemiancoding.com/sketch -->
    <title>expressvykup_logo</title>
    <desc>Created with Sketch.</desc>
    <defs></defs>
    <g id="Home_page" stroke="none" stroke-width="1" fill="none" fill-rule="evenodd">
        <g id="Expressvykup" transform="translate(-151.000000, -61.000000)" fill="#1D437F">
            <g id="Header" transform="translate(0.000000, 6.000000)">
                <g id="Menu" transform="translate(0.000000, 42.000000)">
                    <g id="expressvykup_logo" transform="translate(151.000000, 13.000000)">
                        <g id="Layer_1">
                            <g id="Group">
                                <polygon id="Shape" points="41.6721044 0.360606061 40.8238173 4.68787879 32.08646 4.68787879 31.5562806 7.33939394 39.9119086 7.33939394 39.1060359 11.5393939 30.7504078 11.5393939 30.1990212 14.4030303 39.1060359 14.4030303 38.2365416 18.730303 22.6492659 18.730303 26.2544861 0.339393939 41.6721044 0.339393939"></polygon>
                                <polygon id="Shape" points="43.0929853 0.360606061 49.1794454 0.360606061 50.3458401 4.56060606 50.4306688 4.56060606 53.4420881 0.360606061 58.9983687 0.360606061 53.0179445 7.25454545 56.5383361 14.530303 50.4094617 14.530303 48.8401305 9.73636364 48.7553018 9.73636364 45.4257749 14.530303 39.6786297 14.530303 45.9771615 7.25454545"></polygon>
                                <path d="M68.5415987,0.360606061 C71.4045677,0.360606061 73.2071778,2.16363636 73.2071778,4.58181818 C73.2071778,7.23333333 71.1924959,10.5212121 66.3784666,10.5212121 L63.3458401,10.5212121 L62.5611746,14.5515152 L57.3017945,14.5515152 L60.1011419,0.360606061 L68.5415987,0.360606061 L68.5415987,0.360606061 Z M63.8972268,7.16969697 L65.1696574,7.16969697 C67.1631321,7.16969697 67.8417618,6.04545455 67.8417618,5.11212121 C67.8417618,4.66666667 67.62969,3.71212121 66.0391517,3.71212121 L64.5758564,3.71212121 L63.8972268,7.16969697 Z" id="Shape"></path>
                                <path d="M85.0195759,0.360606061 C86.9070147,0.360606061 88.8792822,1.37878788 88.8792822,3.60606061 C88.8792822,5.76969697 87.1615008,7.46666667 84.8923328,7.80606061 L84.8711256,7.84848485 C85.8042414,7.97575758 87.0978793,8.61212121 87.1190865,10.4363636 L87.182708,14.5515152 L81.6476346,14.5515152 L81.7960848,11.0090909 C81.8597064,9.75757576 80.9477977,9.60909091 80.3964111,9.60909091 L79.2088091,9.60909091 L78.233279,14.5515152 L72.9738989,14.5515152 L75.7732463,0.360606061 L85.0195759,0.360606061 L85.0195759,0.360606061 Z M79.5905383,6.55454545 L80.8841762,6.55454545 C83.1533442,6.55454545 83.3442088,5.34545455 83.3442088,4.77272727 C83.3442088,3.54242424 81.9233279,3.52121212 81.5840131,3.52121212 L80.2055465,3.52121212 L79.5905383,6.55454545 Z" id="Shape"></path>
                                <polygon id="Shape" points="103.236542 0.360606061 102.579119 3.71212121 95.8352365 3.71212121 95.4323002 5.74848485 101.879282 5.74848485 101.243067 8.99393939 94.7960848 8.99393939 94.3719413 11.2 101.243067 11.2 100.585644 14.5515152 88.5611746 14.5515152 91.360522 0.360606061 103.236542 0.360606061"></polygon>
                                <path d="M115.621533,4.24242424 C114.115824,3.69090909 112.694943,3.52121212 111.570962,3.52121212 C110.722675,3.52121212 109.216966,3.60606061 109.216966,4.58181818 C109.216966,5.38787879 110.553018,5.43030303 111.719413,5.68484848 C113.013051,5.93939394 115.451876,6.55454545 115.451876,9.1 C115.451876,10.6060606 114.688418,12.069697 113.818923,12.9181818 C112.058728,14.6151515 109.153344,14.8060606 107.75367,14.8060606 C105.336052,14.8060606 103.469821,14.4242424 102.19739,14.0636364 L102.918434,10.4575758 C104.615008,11.1787879 106.269168,11.4121212 107.477977,11.4121212 C109.619902,11.4121212 110.022838,10.7969697 110.022838,10.2878788 C110.022838,9.69393939 109.429038,9.58787879 108.898858,9.46060606 C108.389886,9.33333333 107.880914,9.22727273 107.371941,9.07878788 C105.611746,8.61212121 103.830343,8.06060606 103.830343,5.64242424 C103.830343,3.03333333 105.972268,0.148484848 111.443719,0.148484848 C112.843393,0.148484848 114.582382,0.275757576 116.342577,0.636363636 L115.621533,4.24242424 Z" id="Shape"></path>
                                <path d="M129.130506,4.24242424 C127.624796,3.69090909 126.203915,3.52121212 125.079935,3.52121212 C124.231648,3.52121212 122.725938,3.60606061 122.725938,4.58181818 C122.725938,5.38787879 124.06199,5.43030303 125.228385,5.68484848 C126.522023,5.93939394 128.960848,6.55454545 128.960848,9.1 C128.960848,10.6060606 128.19739,12.069697 127.327896,12.9181818 C125.5677,14.6151515 122.662316,14.8060606 121.262643,14.8060606 C118.845024,14.8060606 116.978793,14.4242424 115.706362,14.0636364 L116.427406,10.4575758 C118.12398,11.1787879 119.77814,11.4121212 120.986949,11.4121212 C123.128874,11.4121212 123.531811,10.7969697 123.531811,10.2878788 C123.531811,9.69393939 122.93801,9.58787879 122.40783,9.46060606 C121.898858,9.33333333 121.389886,9.22727273 120.880914,9.07878788 C119.120718,8.61212121 117.339315,8.06060606 117.339315,5.64242424 C117.339315,3.03333333 119.48124,0.148484848 124.952692,0.148484848 C126.352365,0.148484848 128.091354,0.275757576 129.85155,0.636363636 L129.130506,4.24242424 Z" id="Shape"></path>
                                <polygon id="Shape" points="0.127243067 18.0090909 9.47960848 18.0090909 10.9004894 32.0515152 11.0277325 32.0515152 18.0261011 18.0090909 26.9755302 18.0090909 13.954323 41.469697 3.64763458 41.469697"></polygon>
                                <path d="M85.8042414,31.9242424 C85.6982055,32.4545455 85.6133768,33.0060606 85.6133768,33.5363636 C85.6133768,33.9393939 85.6557912,34.3848485 85.8466558,34.7454545 C86.0375204,35.1484848 86.588907,35.8484848 87.8189233,35.8484848 C90.3213703,35.8484848 90.9787928,33.4939394 91.2756933,31.9666667 L94.0114192,18.030303 L102.727569,18.030303 L100.034258,31.7969697 C99.2495922,35.8272727 97.1076672,41.8939394 86.7373573,41.8939394 C78.5725938,41.8939394 76.7487765,37.969697 76.7487765,34.8515152 C76.7487765,33.9818182 76.8760196,33.1757576 77.045677,32.2636364 L79.8450245,18.0090909 L88.5611746,18.0090909 L85.8042414,31.9242424 Z" id="Shape"></path>
                                <polygon id="Shape" points="61.2251223 27.2363636 61.3523654 27.2363636 68.5415987 18.0090909 78.4453507 18.0090909 68.6264274 28.9969697 74.54323 41.469697 64.1305057 41.469697 60.4828711 31.5212121 60.3556281 31.5212121 58.4045677 41.469697 49.6884176 41.469697 54.3115824 18.0090909 63.0277325 18.0090909"></polygon>
                                <polygon id="Shape" points="41.0358891 34.2787879 39.6150082 41.4909091 30.8988581 41.4909091 32.319739 34.2787879 27.0603589 18.030303 36.5611746 18.030303 38.1517129 27.8515152 38.278956 27.8515152 43.7504078 18.030303 52.7846656 18.030303"></polygon>
                                <path d="M119.756933,18.0090909 C124.507341,18.0090909 127.497553,21 127.497553,24.9878788 C127.497553,29.3787879 124.146819,34.8090909 116.194127,34.8090909 L111.189233,34.8090909 L109.895595,41.469697 L101.179445,41.469697 L105.80261,18.0090909 L119.756933,18.0090909 Z M112.058728,29.2727273 L114.179445,29.2727273 C117.487765,29.2727273 118.590538,27.4272727 118.590538,25.8575758 C118.590538,25.1151515 118.230016,23.5454545 115.600326,23.5454545 L113.161501,23.5454545 L112.058728,29.2727273 Z" id="Shape"></path>
                                <polyline id="Shape" points="26.7634584 0.360606061 3.47797716 0.360606061 3.24469821 1.46363636 26.1908646 1.46363636 25.5546493 4.56060606 2.60848287 4.56060606 2.35399674 5.76969697 25.278956 5.76969697 24.6427406 8.86666667 1.7177814 8.86666667 1.46329527 10.0969697 24.3670473 10.0969697 23.730832 13.1727273 0.86949429 13.1727273 0.636215334 14.3818182 23.6460033 14.3818182 23.0097879 17.4575758 0 17.4575758 0.233278956 18.6878788 22.6492659 18.6878788"></polyline>
                                <rect id="Rectangle-path" x="0.975530179" y="18.0090909" width="114.455139" height="2.18484848"></rect>
                            </g>
                        </g>
                    </g>
                </g>
            </g>
        </g>
    </g>
</svg>