<?xml version="1.0" encoding="UTF-8"?>
<svg width="27px" height="27px" viewBox="0 0 27 27" version="1.1" xmlns="http://www.w3.org/2000/svg" xmlns:xlink="http://www.w3.org/1999/xlink">
    <!-- Generator: Sketch 41.2 (35397) - http://www.bohemiancoding.com/sketch -->
    <title>icon_mobile_phone</title>
    <desc>Created with Sketch.</desc>
    <defs></defs>
    <g id="Home_page" stroke="none" stroke-width="1" fill="none" fill-rule="evenodd">
        <g id="Mobile_Home" transform="translate(-33.000000, -217.000000)">
            <g id="Header">
                <g id="Tel_2">
                    <g transform="translate(33.000000, 175.000000)">
                        <g id="Fnone_1" transform="translate(0.000000, 1.000000)">
                            <g id="icon_mobile_phone" transform="translate(0.000000, 41.000000)">
                                <rect id="Rectangle-2-Copy" fill="#FFFFFF" x="0" y="0" width="27" height="27" rx="13.5"></rect>
                                <path d="M11.8837619,8.48357494 C11.3079785,8.52559493 10.7999075,8.60385716 10.3581858,8.72046263 C9.91782733,8.8370681 9.60744053,9.00567331 9.42611648,9.22942975 C9.45474659,9.36914622 9.46974332,9.60183191 9.46974332,9.92696157 L9.46974332,10.247364 L6.4195,10.247364 C6.53038489,9.22417725 6.76124359,8.44365595 7.11162166,7.90527484 C7.44382188,7.40313597 7.90054037,7.07327906 8.47859602,6.91517885 C9.05710611,6.75707864 9.45156547,6.65465492 9.66197409,6.60843293 C10.140506,6.50653445 10.6508492,6.43404997 11.1911858,6.39202998 C11.7310679,6.35000999 12.504081,6.329 13.5088617,6.329 C14.9862665,6.329 16.0251307,6.36366649 16.6200008,6.43404997 C17.2166888,6.5039082 17.8351901,6.65465492 18.4777771,6.88681536 C19.1203642,7.11950105 19.5961694,7.4729942 19.9074651,7.94676958 C20.246482,8.46781745 20.470524,9.2352075 20.5805,10.247364 L17.5766102,10.247364 L17.5766102,10.0803345 C17.5766102,9.69007388 17.586608,9.40696421 17.6106937,9.22942975 C17.4243707,8.99726931 17.1035316,8.82341161 16.6459043,8.70680614 C16.1905491,8.59072592 15.7074727,8.51403944 15.1925851,8.4767467 C14.677243,8.43997921 14.1187286,8.42107021 13.5097706,8.42107021 C13.0003363,8.42001971 12.4586364,8.44155495 11.8837619,8.48357494 Z M9.46928887,10.5115647 L9.46928887,11.1119253 C9.46928887,11.3997622 9.34613393,11.5442059 9.10073295,11.5442059 L6.72488789,11.5442059 C6.66081097,11.5442059 6.59491626,11.4974587 6.52402264,11.4044894 C6.45403792,11.310995 6.4195,11.2132985 6.4195,11.1119253 L6.4195,10.5115647 L9.46928887,10.5115647 Z M7.60287807,18.3488179 L7.60287807,15.5329534 C7.60287807,15.2262075 7.63741598,14.966734 7.70694626,14.7582098 C7.77783988,14.5491604 7.89417812,14.3233029 8.05732433,14.0811627 L10.6958393,9.94009282 L10.6958393,9.06187504 L11.8346817,9.06187504 L11.8878519,9.94061807 L15.0598868,9.94061807 L15.0598868,9.06187504 L16.3477875,9.06187504 L16.3477875,10.009951 L19.0726473,14.081688 C19.2771481,14.3711007 19.4039386,14.5974834 19.4534733,14.7660886 C19.5034624,14.9320675 19.5289113,15.18944 19.5289113,15.5334786 L19.5289113,18.3493431 C19.5289113,18.916613 19.3298639,19.1997227 18.9322234,19.1997227 L8.14503246,19.1997227 C7.78374768,19.1997227 7.60287807,18.9160878 7.60287807,18.3488179 Z M15.5470532,13.6914273 C16.1160199,13.3752269 16.4009577,12.994946 16.4009577,12.5479584 C16.4009577,12.1104253 16.115111,11.7369726 15.5425087,11.4254994 C14.969452,11.1140263 14.2918726,10.9585523 13.5088617,10.9585523 C12.7144896,10.9585523 12.0310025,11.1166525 11.4579457,11.4323277 C10.8853434,11.7485281 10.5985878,12.1209303 10.5985878,12.5479584 C10.5985878,12.994946 10.8835256,13.3757522 11.4534013,13.6914273 C12.022368,14.0086783 12.7085818,14.1652027 13.5079528,14.1652027 C14.2982349,14.165728 14.9771776,14.0076278 15.5470532,13.6914273 Z M20.4973363,11.4113177 C20.4414394,11.4995597 20.381907,11.5442059 20.3173756,11.5442059 L17.8897237,11.5442059 C17.8142856,11.5442059 17.7424831,11.5042869 17.675225,11.4254994 C17.6084214,11.346712 17.5729746,11.2421872 17.5729746,11.1119253 L17.5729746,10.5110394 L20.5782278,10.5110394 L20.5782278,11.1114 C20.5805,11.2232782 20.5523243,11.3230757 20.4973363,11.4113177 Z" id="Shape" fill="#1D437F"></path>
                            </g>
                        </g>
                    </g>
                </g>
            </g>
        </g>
    </g>
</svg>