<?xml version="1.0" encoding="UTF-8"?>
<svg width="18px" height="18px" viewBox="0 0 18 18" version="1.1" xmlns="http://www.w3.org/2000/svg" xmlns:xlink="http://www.w3.org/1999/xlink">
    <!-- Generator: Sketch 41.2 (35397) - http://www.bohemiancoding.com/sketch -->
    <title>icon_footer_phone</title>
    <desc>Created with Sketch.</desc>
    <defs></defs>
    <g id="Home_page" stroke="none" stroke-width="1" fill="none" fill-rule="evenodd">
        <g id="Expressvykup" transform="translate(-148.000000, -3584.000000)" fill="#F2F2F2">
            <g id="Group" transform="translate(0.000000, 2127.000000)">
                <g id="Foooter" transform="translate(0.000000, 1333.000000)">
                    <g id="Group-23" transform="translate(148.000000, 124.000000)">
                        <path d="M17.9893516,14.1250044 C18.0271432,14.415035 17.9389114,14.6672086 17.7250266,14.8815253 L15.2139391,17.3779515 C15.1006569,17.5040384 14.9527916,17.6113049 14.7702815,17.6994729 C14.5877714,17.7877646 14.4084389,17.8445037 14.2322839,17.8696901 C14.219697,17.8696901 14.1818437,17.872935 14.1188783,17.8792393 C14.0560364,17.8855128 13.9742215,17.8887268 13.8735262,17.8887268 C13.6343134,17.8887268 13.2472352,17.8477485 12.7122917,17.7657612 C12.1773483,17.6837739 11.5228601,17.4820041 10.7488271,17.1605445 C9.97460905,16.8390231 9.09670328,16.3566792 8.11495555,15.7136983 C7.13320781,15.0707482 6.08846386,14.1880787 4.98081622,13.0658752 C4.09973288,12.1958761 3.3696924,11.3637032 2.79069477,10.5693871 C2.21169714,9.77500928 1.74598166,9.04055357 1.39354833,8.36598911 C1.04108414,7.69142465 0.776759134,7.07990359 0.600542465,6.53142594 C0.424325797,5.9829483 0.3047502,5.51012274 0.241815676,5.11294927 C0.178881151,4.7157758 0.153707341,4.40371093 0.166294246,4.17675466 C0.178881151,3.94979839 0.185174603,3.82371158 0.185174603,3.79849421 C0.210348413,3.62197267 0.266989485,3.44229896 0.35509782,3.25947308 C0.443206154,3.0766472 0.550194846,2.92849519 0.676063895,2.81501705 L3.18715142,0.299585081 C3.36336809,0.123063539 3.56475857,0.0348027682 3.79132286,0.0348027682 C3.95495262,0.0348027682 4.09970203,0.082085324 4.22557108,0.176650436 C4.35144013,0.271215547 4.45842882,0.387845852 4.54653715,0.526541349 L6.56673539,4.36588488 C6.68001754,4.56762379 6.7114848,4.78827572 6.66113718,5.02784067 C6.61078956,5.26740562 6.50380087,5.46914452 6.3401711,5.63305738 L5.41503359,6.55979548 C5.38985978,6.58501284 5.3678327,6.62599105 5.34895234,6.68273012 C5.33007199,6.73946919 5.32063181,6.78675174 5.32063181,6.82457779 C5.37097943,7.0893601 5.48426157,7.39196846 5.66047824,7.73240286 C5.8115211,8.03501122 6.04437884,8.40381516 6.35905146,8.83881467 C6.67372408,9.27381418 7.12055921,9.77497837 7.69955683,10.342369 C8.26596756,10.9224302 8.76944375,11.3731288 9.20998542,11.6947119 C9.65043455,12.0161097 10.0187249,12.2526152 10.3145172,12.4039194 C10.6103094,12.5552236 10.8368737,12.6466365 10.9941792,12.6780655 L11.230122,12.725379 C11.2552958,12.725379 11.2962958,12.7158915 11.3528751,12.6970094 C11.4095162,12.6780655 11.4504236,12.6560312 11.4756283,12.6307829 L12.5517778,11.5338276 C12.7784655,11.3321196 13.0426671,11.2312502 13.3447837,11.2312502 C13.5588228,11.2312502 13.7286534,11.2690453 13.8545225,11.3447283 L13.873372,11.3447283 L17.5172501,13.5008129 C17.7816677,13.6648493 17.9389731,13.8728308 17.9893516,14.1250044 Z" id="icon_footer_phone"></path>
                    </g>
                </g>
            </g>
        </g>
    </g>
</svg>