<?xml version="1.0" encoding="UTF-8"?>
<svg width="25px" height="25px" viewBox="0 0 25 25" version="1.1" xmlns="http://www.w3.org/2000/svg" xmlns:xlink="http://www.w3.org/1999/xlink">
    <!-- Generator: Sketch 41.2 (35397) - http://www.bohemiancoding.com/sketch -->
    <title>icon_phone</title>
    <desc>Created with Sketch.</desc>
    <defs></defs>
    <g id="Home_page" stroke="none" stroke-width="1" fill="none" fill-rule="evenodd">
        <g id="Expressvykup" transform="translate(-360.000000, -10.000000)">
            <g id="Header" transform="translate(0.000000, 6.000000)">
                <g id="up" transform="translate(151.000000, 0.000000)">
                    <g id="Tel_2" transform="translate(209.000000, 0.000000)">
                        <g id="icon_phone" transform="translate(0.000000, 4.000000)">
                            <rect id="Rectangle-2-Copy" fill="#1D437F" x="0" y="0" width="25" height="25" rx="12.5"></rect>
                            <path d="M10.8837619,7.48357494 C10.3079785,7.52559493 9.79990753,7.60385716 9.35818576,7.72046263 C8.91782733,7.8370681 8.60744053,8.00567331 8.42611648,8.22942975 C8.45474659,8.36914622 8.46974332,8.60183191 8.46974332,8.92696157 L8.46974332,9.24736399 L5.4195,9.24736399 C5.53038489,8.22417725 5.76124359,7.44365595 6.11162166,6.90527484 C6.44382188,6.40313597 6.90054037,6.07327906 7.47859602,5.91517885 C8.05710611,5.75707864 8.45156547,5.65465492 8.66197409,5.60843293 C9.140506,5.50653445 9.65084915,5.43404997 10.1911858,5.39202998 C10.7310679,5.35000999 11.504081,5.329 12.5088617,5.329 C13.9862665,5.329 15.0251307,5.36366649 15.6200008,5.43404997 C16.2166888,5.5039082 16.8351901,5.65465492 17.4777771,5.88681536 C18.1203642,6.11950105 18.5961694,6.4729942 18.9074651,6.94676958 C19.246482,7.46781745 19.470524,8.2352075 19.5805,9.24736399 L16.5766102,9.24736399 L16.5766102,9.08033453 C16.5766102,8.69007388 16.586608,8.40696421 16.6106937,8.22942975 C16.4243707,7.99726931 16.1035316,7.82341161 15.6459043,7.70680614 C15.1905491,7.59072592 14.7074727,7.51403944 14.1925851,7.4767467 C13.677243,7.43997921 13.1187286,7.42107021 12.5097706,7.42107021 C12.0003363,7.42001971 11.4586364,7.44155495 10.8837619,7.48357494 Z M8.46928887,9.51156467 L8.46928887,10.1119253 C8.46928887,10.3997622 8.34613393,10.5442059 8.10073295,10.5442059 L5.72488789,10.5442059 C5.66081097,10.5442059 5.59491626,10.4974587 5.52402264,10.4044894 C5.45403792,10.310995 5.4195,10.2132985 5.4195,10.1119253 L5.4195,9.51156467 L8.46928887,9.51156467 Z M6.60287807,17.3488179 L6.60287807,14.5329534 C6.60287807,14.2262075 6.63741598,13.966734 6.70694626,13.7582098 C6.77783988,13.5491604 6.89417812,13.3233029 7.05732433,13.0811627 L9.69583933,8.94009282 L9.69583933,8.06187504 L10.8346817,8.06187504 L10.8878519,8.94061807 L14.0598868,8.94061807 L14.0598868,8.06187504 L15.3477875,8.06187504 L15.3477875,9.00995105 L18.0726473,13.081688 C18.2771481,13.3711007 18.4039386,13.5974834 18.4534733,13.7660886 C18.5034624,13.9320675 18.5289113,14.18944 18.5289113,14.5334786 L18.5289113,17.3493431 C18.5289113,17.916613 18.3298639,18.1997227 17.9322234,18.1997227 L7.14503246,18.1997227 C6.78374768,18.1997227 6.60287807,17.9160878 6.60287807,17.3488179 Z M14.5470532,12.6914273 C15.1160199,12.3752269 15.4009577,11.994946 15.4009577,11.5479584 C15.4009577,11.1104253 15.115111,10.7369726 14.5425087,10.4254994 C13.969452,10.1140263 13.2918726,9.9585523 12.5088617,9.9585523 C11.7144896,9.9585523 11.0310025,10.1166525 10.4579457,10.4323277 C9.88534343,10.7485281 9.59858783,11.1209303 9.59858783,11.5479584 C9.59858783,11.994946 9.88352564,12.3757522 10.4534013,12.6914273 C11.022368,13.0086783 11.7085818,13.1652027 12.5079528,13.1652027 C13.2982349,13.165728 13.9771776,13.0076278 14.5470532,12.6914273 Z M19.4973363,10.4113177 C19.4414394,10.4995597 19.381907,10.5442059 19.3173756,10.5442059 L16.8897237,10.5442059 C16.8142856,10.5442059 16.7424831,10.5042869 16.675225,10.4254994 C16.6084214,10.346712 16.5729746,10.2421872 16.5729746,10.1119253 L16.5729746,9.51103942 L19.5782278,9.51103942 L19.5782278,10.1114 C19.5805,10.2232782 19.5523243,10.3230757 19.4973363,10.4113177 Z" id="Shape" fill="#FFFFFF"></path>
                        </g>
                    </g>
                </g>
            </g>
        </g>
    </g>
</svg>