<?xml version="1.0" encoding="UTF-8"?>
<svg width="27px" height="27px" viewBox="0 0 27 27" version="1.1" xmlns="http://www.w3.org/2000/svg" xmlns:xlink="http://www.w3.org/1999/xlink">
    <!-- Generator: Sketch 41.2 (35397) - http://www.bohemiancoding.com/sketch -->
    <title>icon_mobile_message</title>
    <desc>Created with Sketch.</desc>
    <defs></defs>
    <g id="Home_page" stroke="none" stroke-width="1" fill="none" fill-rule="evenodd">
        <g id="Mobile_Home" transform="translate(-32.000000, -257.000000)">
            <g id="Header">
                <g id="Group">
                    <g>
                        <g id="Tel_2-Copy" transform="translate(32.000000, 257.000000)">
                            <g id="icon_mobile_message">
                                <rect id="Rectangle-2-Copy" fill="#FFFFFF" x="0" y="0" width="27" height="27" rx="13.5"></rect>
                                <g id="envelope" transform="translate(5.400000, 6.531579)" fill="#1D437F">
                                    <path d="M15.525551,0.0102315789 L0.67444898,0.0102315789 C0.300857143,0.0102315789 0,0.320589474 0,0.705978947 L0,11.2342737 C0,11.6196632 0.300857143,11.9300211 0.67444898,11.9300211 L15.525551,11.9300211 C15.8991429,11.9300211 16.2,11.6196632 16.2,11.2342737 L16.2,0.705978947 C16.2,0.320589474 15.8991429,0.0102315789 15.525551,0.0102315789 L15.525551,0.0102315789 Z M14.851102,9.53924211 L10.7911837,5.60008421 L14.851102,2.24412632 L14.851102,9.53924211 Z M7.72971429,7.42812632 C8.1,7.70778947 8.43061224,7.54749474 8.57608163,7.42812632 L9.72661224,6.47658947 L13.905551,10.5351158 L2.29444898,10.5351158 L6.52628571,6.42884211 L7.72971429,7.42812632 Z M13.7104898,1.40172632 L8.15289796,5.99229474 L2.61844898,1.40172632 L13.7104898,1.40172632 L13.7104898,1.40172632 Z M5.46171429,5.54892632 L1.34889796,9.53924211 L1.34889796,2.1384 L5.46171429,5.54892632 L5.46171429,5.54892632 Z" id="Shape"></path>
                                </g>
                            </g>
                        </g>
                    </g>
                </g>
            </g>
        </g>
    </g>
</svg>