<?xml version="1.0" encoding="UTF-8"?>
<svg width="25px" height="25px" viewBox="0 0 25 25" version="1.1" xmlns="http://www.w3.org/2000/svg" xmlns:xlink="http://www.w3.org/1999/xlink">
    <!-- Generator: Sketch 41.2 (35397) - http://www.bohemiancoding.com/sketch -->
    <title>icon_email</title>
    <desc>Created with Sketch.</desc>
    <defs></defs>
    <g id="Home_page" stroke="none" stroke-width="1" fill="none" fill-rule="evenodd">
        <g id="Expressvykup" transform="translate(-1044.000000, -10.000000)">
            <g id="Header" transform="translate(0.000000, 6.000000)">
                <g id="up" transform="translate(151.000000, 0.000000)">
                    <g id="Tel_2-Copy" transform="translate(893.000000, 4.000000)">
                        <g id="icon_email">
                            <rect id="Rectangle-2-Copy" fill="#1D437F" x="0" y="0" width="25" height="25" rx="12.5"></rect>
                            <g id="envelope" transform="translate(5.000000, 6.973684)" fill="#FFFFFF">
                                <path d="M14.3755102,0.00947368421 L0.624489796,0.00947368421 C0.278571429,0.00947368421 0,0.296842105 0,0.653684211 L0,10.4021053 C0,10.7589474 0.278571429,11.0463158 0.624489796,11.0463158 L14.3755102,11.0463158 C14.7214286,11.0463158 15,10.7589474 15,10.4021053 L15,0.653684211 C15,0.296842105 14.7214286,0.00947368421 14.3755102,0.00947368421 L14.3755102,0.00947368421 Z M13.7510204,8.83263158 L9.99183673,5.18526316 L13.7510204,2.07789474 L13.7510204,8.83263158 Z M7.15714286,6.87789474 C7.5,7.13684211 7.80612245,6.98842105 7.94081633,6.87789474 L9.00612245,5.99684211 L12.8755102,9.75473684 L2.1244898,9.75473684 L6.04285714,5.95263158 L7.15714286,6.87789474 Z M12.694898,1.29789474 L7.54897959,5.54842105 L2.4244898,1.29789474 L12.694898,1.29789474 L12.694898,1.29789474 Z M5.05714286,5.13789474 L1.24897959,8.83263158 L1.24897959,1.98 L5.05714286,5.13789474 L5.05714286,5.13789474 Z" id="Shape"></path>
                            </g>
                        </g>
                    </g>
                </g>
            </g>
        </g>
    </g>
</svg>