<?xml version="1.0" encoding="UTF-8"?>
<svg width="19px" height="17px" viewBox="0 0 19 17" version="1.1" xmlns="http://www.w3.org/2000/svg" xmlns:xlink="http://www.w3.org/1999/xlink">
    <!-- Generator: Sketch 41.2 (35397) - http://www.bohemiancoding.com/sketch -->
    <title>icon_footer_phone_2</title>
    <desc>Created with Sketch.</desc>
    <defs></defs>
    <g id="Home_page" stroke="none" stroke-width="1" fill="none" fill-rule="evenodd">
        <g id="Expressvykup" transform="translate(-148.000000, -3614.000000)" fill="#F2F2F2">
            <g id="Group" transform="translate(0.000000, 2127.000000)">
                <g id="Foooter" transform="translate(0.000000, 1333.000000)">
                    <g id="Group-23" transform="translate(148.000000, 124.000000)">
                        <path d="M7.00772966,33.092169 C6.26930705,33.1460582 5.6177234,33.2464268 5.05123029,33.3959693 C4.48648561,33.5455119 4.08842511,33.7617423 3.85588319,34.0487023 C3.89260033,34.2278839 3.91183312,34.5262954 3.91183312,34.9432631 L3.91183312,35.3541683 L0,35.3541683 C0.142206091,34.0419662 0.43827451,33.0409742 0.887622445,32.3505188 C1.31365791,31.7065428 1.89938381,31.2835125 2.64072048,31.0807544 C3.38263997,30.8779963 3.88852065,30.7466413 4.15836254,30.6873632 C4.77206341,30.5566819 5.42656112,30.463723 6.11952441,30.4098338 C6.81190488,30.3559446 7.80326783,30.329 9.09186483,30.329 C10.9865861,30.329 12.318894,30.3734586 13.0817947,30.463723 C13.8470267,30.5533138 14.6402336,30.7466413 15.4643296,31.0443792 C16.2884255,31.3427907 16.8986295,31.7961336 17.2978557,32.4037344 C17.7326333,33.0719605 18.0199595,34.0561121 18.161,35.3541683 L14.3086137,35.3541683 L14.3086137,35.1399587 C14.3086137,34.6394627 14.3214355,34.2763842 14.3523246,34.0487023 C14.1133717,33.7509645 13.7019065,33.5279979 13.115015,33.3784554 C12.5310375,33.2295864 11.9115086,33.1312386 11.2511827,33.083412 C10.5902741,33.0362589 9.87399833,33.0120088 9.09303045,33.0120088 C8.43969837,33.0106615 7.74498665,33.0382797 7.00772966,33.092169 Z M3.91125031,35.6929967 L3.91125031,36.4629387 C3.91125031,36.8320797 3.7533083,37.0173239 3.4385899,37.0173239 L0.391649562,37.0173239 C0.309473091,37.0173239 0.224965373,36.9573721 0.134046725,36.8381423 C0.0442937005,36.7182388 0,36.5929464 0,36.4629387 L0,35.6929967 L3.91125031,35.6929967 Z M1.51764205,45.7440069 L1.51764205,42.1327566 C1.51764205,41.7393654 1.56193575,41.4065996 1.65110597,41.1391744 C1.74202461,40.8710756 1.89122445,40.5814211 2.1004539,40.2708846 L5.48425949,34.9601035 L5.48425949,33.8338191 L6.94478598,33.8338191 L7.01297497,34.9607771 L11.0810017,34.9607771 L11.0810017,33.8338191 L12.7326904,33.8338191 L12.7326904,35.0496943 L16.2272303,40.2715582 C16.4894956,40.6427201 16.6521001,40.9330482 16.7156266,41.1492786 C16.7797359,41.362141 16.8123734,41.6922124 16.8123734,42.1334302 L16.8123734,45.7446805 C16.8123734,46.4721848 16.5571018,46.8352633 16.0471414,46.8352633 L2.21293659,46.8352633 C1.74960117,46.8352633 1.51764205,46.4715112 1.51764205,45.7440069 Z M11.705776,39.7710622 C12.4354564,39.365546 12.8008794,38.8778487 12.8008794,38.3046022 C12.8008794,37.7434809 12.4342908,37.2645406 11.6999479,36.8650869 C10.9650221,36.4656331 10.0960496,36.2662431 9.09186483,36.2662431 C8.07310972,36.2662431 7.1965607,36.4690012 6.46163496,36.8738439 C5.72729203,37.2793601 5.35953776,37.7569532 5.35953776,38.3046022 C5.35953776,38.8778487 5.72496078,39.3662196 6.45580684,39.7710622 C7.18548728,40.1779257 8.06553317,40.378663 9.09069921,40.378663 C10.104209,40.3793366 10.9749299,40.1765785 11.705776,39.7710622 Z M18.161,36.4629387 C18.161,36.6057451 18.1248657,36.7337319 18.0543454,36.8468993 C17.9826596,36.9600666 17.9063112,37.0173239 17.8235519,37.0173239 L14.710171,37.0173239 C14.6134243,37.0173239 14.52134,36.9661291 14.4350839,36.8650869 C14.3494105,36.7640446 14.3039512,36.6299952 14.3039512,36.4629387 L14.3039512,35.6923231 L18.1580859,35.6923231 L18.1580859,36.4622651 L18.161,36.4629387 L18.161,36.4629387 Z" id="icon_footer_phone_2"></path>
                    </g>
                </g>
            </g>
        </g>
    </g>
</svg>