<?xml version="1.0" encoding="UTF-8"?>
<svg width="62px" height="62px" viewBox="0 0 62 62" version="1.1" xmlns="http://www.w3.org/2000/svg" xmlns:xlink="http://www.w3.org/1999/xlink">
    <!-- Generator: Sketch 41.2 (35397) - http://www.bohemiancoding.com/sketch -->
    <title>phone-call</title>
    <desc>Created with Sketch.</desc>
    <defs>
        <linearGradient x1="50%" y1="100%" x2="50%" y2="-2.48949813e-15%" id="linearGradient-1">
            <stop stop-color="#1D437F" offset="0%"></stop>
            <stop stop-color="#5868DB" offset="100%"></stop>
        </linearGradient>
        <rect id="path-2" x="0" y="0" width="50" height="50" rx="25"></rect>
        <filter x="-50%" y="-50%" width="200%" height="200%" filterUnits="objectBoundingBox" id="filter-3">
            <feOffset dx="0" dy="2" in="SourceAlpha" result="shadowOffsetOuter1"></feOffset>
            <feGaussianBlur stdDeviation="3" in="shadowOffsetOuter1" result="shadowBlurOuter1"></feGaussianBlur>
            <feComposite in="shadowBlurOuter1" in2="SourceAlpha" operator="out" result="shadowBlurOuter1"></feComposite>
            <feColorMatrix values="0 0 0 0 0   0 0 0 0 0   0 0 0 0 0  0 0 0 0.5 0" type="matrix" in="shadowBlurOuter1"></feColorMatrix>
        </filter>
    </defs>
    <g id="Home_page" stroke="none" stroke-width="1" fill="none" fill-rule="evenodd">
        <g id="Mobile_Home" transform="translate(-32.000000, -382.000000)">
            <g id="Header">
                <g id="CAll_me">
                    <g transform="translate(38.000000, 386.000000)">
                        <g id="phone-call">
                            <g id="Rectangle-2-Copy">
                                <use fill="black" fill-opacity="1" filter="url(#filter-3)" xlink:href="#path-2"></use>
                                <use fill="url(#linearGradient-1)" fill-rule="evenodd" xlink:href="#path-2"></use>
                            </g>
                            <g id="Group" transform="translate(11.111111, 11.111111)" fill="#FFFFFF">
                                <path d="M20.8469995,16.3402895 C20.3069737,15.7779946 19.6556024,15.4773617 18.9652602,15.4773617 C18.2804852,15.4773617 17.6235466,15.7724273 17.0612518,16.3347222 L15.3019925,18.0884142 C15.1572433,18.0104723 15.0124941,17.9380977 14.8733122,17.8657232 C14.6728903,17.7655122 14.4836029,17.6708685 14.3221519,17.5706575 C12.6742382,16.5240096 11.1766409,15.160027 9.74028364,13.3952004 C9.04437412,12.5155708 8.57672293,11.7751231 8.23711908,11.0235408 C8.69363572,10.6059951 9.11674871,10.1717475 9.52872714,9.75420183 C9.68461088,9.5983181 9.84049461,9.43686709 9.99637834,9.28098336 C11.1655063,8.11185537 11.1655063,6.59755626 9.99637834,5.42842827 L8.47651195,3.90856188 C8.30392639,3.73597632 8.12577356,3.55782349 7.95875527,3.37967065 C7.62471871,3.03449953 7.27398031,2.67819386 6.91210736,2.34415729 C6.37208158,1.80969878 5.72627754,1.5257677 5.04706985,1.5257677 C4.36786217,1.5257677 3.71092358,1.80969878 3.15419597,2.34415729 C3.14862869,2.34972457 3.14862869,2.34972457 3.14306142,2.35529184 L1.25018753,4.26486756 C0.537576184,4.9774789 0.131165026,5.84597398 0.0420886076,6.85365096 C-0.0915260197,8.47929559 0.387259728,9.9935947 0.754699953,10.9845699 C1.65659869,13.4174695 3.00387951,15.6722164 5.0136662,18.0884142 C7.45213315,21.0000996 10.3860877,23.2993847 13.7375879,24.919462 C15.0180614,25.5262951 16.7272152,26.2444737 18.6367909,26.3669538 C18.7537037,26.3725211 18.8761838,26.3780884 18.9875293,26.3780884 C20.2735701,26.3780884 21.3536217,25.9160045 22.1998476,24.9974039 C22.2054149,24.9862693 22.2165495,24.9807021 22.2221167,24.9695675 C22.5116151,24.6188291 22.8456517,24.3014944 23.1963901,23.9618905 C23.4357829,23.7336322 23.6807431,23.4942393 23.920136,23.2437119 C24.4712963,22.6702825 24.7607947,22.0022093 24.7607947,21.3174344 C24.7607947,20.6270921 24.465729,19.9645863 23.9034341,19.4078586 L20.8469995,16.3402895 Z M22.8400844,22.2026313 C22.8345171,22.2026313 22.8345171,22.2081985 22.8400844,22.2026313 C22.6229606,22.4364569 22.4002696,22.6480134 22.1608767,22.881839 C21.7990038,23.2270101 21.4315635,23.588883 21.0863924,23.9952942 C20.5240975,24.59656 19.8615917,24.8804911 18.9930966,24.8804911 C18.9095874,24.8804911 18.820511,24.8804911 18.7370019,24.8749238 C17.0835209,24.7691456 15.5469526,24.1233415 14.3945265,23.5721812 C11.2434482,22.0467475 8.47651195,19.8810771 6.17722691,17.13641 C4.27878575,14.8482595 3.00944679,12.7326946 2.16878809,10.4612459 C1.65103141,9.07499414 1.46174402,7.99494257 1.54525316,6.97613104 C1.60092593,6.32475973 1.85145335,5.78473394 2.31353727,5.32265002 L4.21197843,3.42420886 C4.48477496,3.16811416 4.77427332,3.02893226 5.05820441,3.02893226 C5.4089428,3.02893226 5.69287389,3.24048875 5.87102672,3.41864158 C5.876594,3.42420886 5.88216128,3.42977614 5.88772855,3.43534341 C6.2273324,3.75267815 6.55023441,4.08114744 6.88983826,4.43188584 C7.06242382,4.61003868 7.24057665,4.78819151 7.41872949,4.97191163 L8.93859587,6.49177801 C9.52872714,7.08190928 9.52872714,7.62750234 8.93859587,8.21763361 C8.77714487,8.37908462 8.62126113,8.54053563 8.45981013,8.69641936 C7.99215893,9.17520511 7.54677684,9.6205872 7.06242382,10.0548347 C7.05128926,10.0659693 7.04015471,10.0715366 7.03458744,10.0826711 C6.55580169,10.5614569 6.64487811,11.0291081 6.74508908,11.3464428 C6.75065635,11.3631446 6.75622363,11.3798465 6.7617909,11.3965483 C7.15706751,12.3541198 7.71379512,13.2560185 8.5600211,14.3305028 L8.56558837,14.3360701 C10.1021566,16.228944 11.7222339,17.7042722 13.5093296,18.8344292 C13.7375879,18.9791784 13.9714135,19.0960912 14.1941045,19.2074367 C14.3945265,19.3076477 14.5838139,19.4022914 14.7452649,19.5025023 C14.767534,19.5136369 14.7898031,19.5303387 14.8120722,19.5414733 C15.0013596,19.636117 15.1795124,19.6806552 15.3632325,19.6806552 C15.8253165,19.6806552 16.1148148,19.3911568 16.2094585,19.2965131 L18.1134669,17.3925047 C18.3027543,17.2032173 18.6033872,16.974959 18.9541256,16.974959 C19.2992968,16.974959 19.5832278,17.1920827 19.7558134,17.3813701 C19.7613807,17.3869374 19.7613807,17.3869374 19.766948,17.3925047 L22.8345171,20.4600738 C23.4079466,21.027936 23.4079466,21.6125 22.8400844,22.2026313 Z" id="Shape"></path>
                                <path d="M14.2553446,6.27465424 C15.7139709,6.51961439 17.0389827,7.20995663 18.0967651,8.2677391 C19.1545476,9.32552157 19.8393226,10.6505333 20.08985,12.1091596 C20.15109,12.4765999 20.4684248,12.7326946 20.8302977,12.7326946 C20.8748359,12.7326946 20.9138068,12.7271273 20.9583451,12.72156 C21.3703235,12.6547527 21.64312,12.2650434 21.5763127,11.8530649 C21.2756798,10.0882384 20.4405884,8.47929559 19.1656821,7.20438936 C17.8907759,5.92948312 16.2818331,5.0943917 14.5170066,4.79375879 C14.1050281,4.72695148 13.7208861,4.99974801 13.6485115,5.40615917 C13.5761369,5.81257032 13.8433662,6.20784693 14.2553446,6.27465424 Z" id="Shape"></path>
                                <path d="M26.3474684,11.6359412 C25.8519808,8.72982302 24.4824308,6.08536685 22.3780005,3.98093647 C20.2735701,1.87650609 17.6291139,0.506956165 14.7229958,0.0114685888 C14.3165846,-0.0609060009 13.9324426,0.217457806 13.860068,0.623868964 C13.7932607,1.0358474 14.0660572,1.41998945 14.4780356,1.49236404 C17.0723863,1.93217886 19.4384787,3.16254688 21.320218,5.03871894 C23.2019573,6.92045827 24.4267581,9.28655063 24.8665729,11.8809013 C24.9278129,12.2483415 25.2451477,12.5044362 25.6070206,12.5044362 C25.6515588,12.5044362 25.6905298,12.498869 25.735068,12.4933017 C26.1414791,12.4320617 26.4198429,12.0423523 26.3474684,11.6359412 Z" id="Shape"></path>
                            </g>
                        </g>
                    </g>
                </g>
            </g>
        </g>
    </g>
</svg>