<?xml version="1.0" encoding="UTF-8"?>
<svg width="33px" height="33px" viewBox="0 0 33 33" version="1.1" xmlns="http://www.w3.org/2000/svg" xmlns:xlink="http://www.w3.org/1999/xlink">
    <!-- Generator: Sketch 41.2 (35397) - http://www.bohemiancoding.com/sketch -->
    <title>Viber</title>
    <desc>Created with Sketch.</desc>
    <defs>
        <path d="M12.5,0 C5.59638889,0 0,5.59638889 0,12.5 C0,19.4036111 5.59638889,25 12.5,25 C19.4036111,25 25,19.4036111 25,12.5 C25,5.59638889 19.4036111,0 12.5,0 Z M12.3511111,5.36444444 C12.3913889,5.1925 12.5477778,5.11555556 12.5752778,5.10194444 C12.6472222,5.06638889 12.7113889,5.06111111 12.8402778,5.05 C12.8402778,5.05 12.9511111,5.04277778 13.0483333,5.04555556 C16.3533333,5.13416667 19.2077778,7.48055556 19.6188889,11.035 C19.6463889,11.2725 19.6933333,11.5533333 19.7069444,12.1316667 C19.7097222,12.2475 19.7116667,12.4577778 19.5694444,12.5933333 C19.5052778,12.6544444 19.4316667,12.6816667 19.3802778,12.695 C19.3088889,12.6791667 19.1963889,12.6430556 19.11,12.5483333 C18.9930556,12.42 18.9866667,12.2530556 18.9836111,12.1958333 C18.9488889,11.5505556 18.8575,10.9058333 18.7091667,10.2766667 C18.1597222,7.94416667 16.0422222,6.10333333 13.6569444,5.83666667 C13.3797222,5.80555556 13.1016667,5.775 12.8230556,5.76222222 C12.6341667,5.75361111 12.4463889,5.71861111 12.3725,5.59194444 C12.3188889,5.49888889 12.3452778,5.38972222 12.3511111,5.36444444 Z M13.6491667,7.56083333 C13.6430556,7.55972222 13.51,7.55888889 13.3416667,7.51472222 C13.2091667,7.48 13.1058333,7.45138889 13.0272222,7.36055556 C12.9527778,7.27444444 12.9325,7.16888889 12.9294444,7.09 C12.9463889,7.02916667 12.9822222,6.93777778 13.0647222,6.87111111 C13.1811111,6.77694444 13.3280556,6.7825 13.3972222,6.78583333 C15.3452778,6.88305556 16.4988889,8.01111111 16.4988889,8.01111111 C16.5988889,8.10888889 17.0175,8.52722222 17.3816667,9.20583333 C17.8208333,10.0241667 17.9475,10.7861111 17.9883333,11.2527778 C17.9983333,11.3591667 17.9955556,11.5169444 17.9222222,11.6791667 C17.8919444,11.7458333 17.8577778,11.8194444 17.7775,11.8775 C17.68,11.9480556 17.5744444,11.9533333 17.5291667,11.9527778 C17.4788889,11.9338889 17.4161111,11.9016667 17.3608333,11.8444444 C17.2894444,11.7705556 17.2566667,11.69 17.2530556,11.6566667 C17.1502778,10.7625 17.0102778,9.88916667 16.4602778,9.13388889 C15.7619444,8.17555556 14.7730556,7.75083333 13.6491667,7.56083333 Z M16.1966667,10.9586111 C16.1777778,11.2177778 16.0725,11.3133333 16.0461111,11.3358333 C15.9675,11.4022222 15.8766667,11.4205556 15.8216667,11.4266667 C15.7580556,11.4141667 15.6677778,11.3858333 15.5944444,11.3133333 C15.4858333,11.2058333 15.4719444,11.0580556 15.4663889,11.0097222 C15.4405556,10.7855556 15.2797222,10.0683333 14.9127778,9.7375 C14.6833333,9.53055556 14.3663889,9.42138889 13.9027778,9.35416667 C13.7166667,9.32722222 13.5361111,9.28944444 13.4708333,9.16611111 C13.4211111,9.07194444 13.455,8.96555556 13.4652778,8.93194444 C13.5413889,8.68638889 13.8391667,8.61555556 13.8627778,8.61055556 C14.0605556,8.63833333 15.3247222,8.83305556 15.9027778,9.77305556 C16.2155556,10.2816667 16.2072222,10.8138889 16.1966667,10.9586111 Z M19.6780556,17.9213889 C19.2038889,18.4988889 18.7458333,19.1069444 18.1841667,19.5902778 C17.7019444,20.005 17.0713889,20.055 16.4438889,19.7986111 C11.2886111,17.6938889 7.59111111,14.1155556 5.45861111,8.95111111 C5.405,8.82166667 5.36166667,8.68777778 5.31611111,8.55527778 C4.91694444,7.39611111 5.03722222,6.94583333 5.98833333,6.16611111 C6.29916667,5.91111111 6.63194444,5.68027778 6.96944444,5.46111111 C7.53666667,5.09277778 8.16055556,5.09722222 8.58944444,5.61388889 C9.30222222,6.47305556 9.98222222,7.37194444 10.5672222,8.32111111 C11.0038889,9.02972222 10.8477778,9.43083333 10.2069444,9.96444444 C10.0588889,10.0877778 9.9,10.1983333 9.75166667,10.3213889 C9.38083333,10.6294444 9.22416667,10.9966667 9.38777778,11.4838889 C10.1047222,13.62 11.6008333,14.9705556 13.6863889,15.6880556 C13.9288889,15.7713889 14.3077778,15.5841667 14.5730556,15.4336111 C14.7711111,15.3211111 14.8872222,15.065 15.0405556,14.8733333 C15.4547222,14.3552778 16.1247222,14.1361111 16.6777778,14.4869444 C17.6663889,15.1141667 18.6136111,15.8108333 19.5427778,16.5244444 C19.7419444,16.6775 19.7902778,17.0266667 19.8977778,17.2625 C19.8108333,17.5377778 19.7988889,17.7741667 19.6780556,17.9213889 Z" id="path-1"></path>
        <filter x="-50%" y="-50%" width="200%" height="200%" filterUnits="objectBoundingBox" id="filter-2">
            <feOffset dx="0" dy="2" in="SourceAlpha" result="shadowOffsetOuter1"></feOffset>
            <feGaussianBlur stdDeviation="2" in="shadowOffsetOuter1" result="shadowBlurOuter1"></feGaussianBlur>
            <feColorMatrix values="0 0 0 0 0   0 0 0 0 0   0 0 0 0 0  0 0 0 0.5 0" type="matrix" in="shadowBlurOuter1"></feColorMatrix>
        </filter>
    </defs>
    <g id="Contacts" stroke="none" stroke-width="1" fill="none" fill-rule="evenodd">
        <g transform="translate(-144.000000, -301.000000)" id="up">
            <g transform="translate(148.000000, 303.000000)">
                <g id="Tel_1">
                    <g id="Viber">
                        <use fill="black" fill-opacity="1" filter="url(#filter-2)" xlink:href="#path-1"></use>
                        <use fill="#7D51A0" fill-rule="evenodd" xlink:href="#path-1"></use>
                    </g>
                </g>
            </g>
        </g>
    </g>
</svg>