<?xml version="1.0" encoding="UTF-8"?>
<svg width="25px" height="25px" viewBox="0 0 25 25" version="1.1" xmlns="http://www.w3.org/2000/svg" xmlns:xlink="http://www.w3.org/1999/xlink">
    <!-- Generator: Sketch 41.2 (35397) - http://www.bohemiancoding.com/sketch -->
    <title>vk</title>
    <desc>Created with Sketch.</desc>
    <defs></defs>
    <g id="Home_page" stroke="none" stroke-width="1" fill="none" fill-rule="evenodd">
        <g id="Expressvykup" transform="translate(-1028.000000, -3614.000000)">
            <g id="Group" transform="translate(0.000000, 2127.000000)">
                <g id="Foooter" transform="translate(0.000000, 1333.000000)">
                    <g id="Group-16" transform="translate(1027.000000, 45.000000)">
                        <g id="Group-22" transform="translate(0.000000, 79.000000)">
                            <g id="vk" transform="translate(1.000000, 30.000000)">
                                <g id="Capa_1">
                                    <g id="Group">
                                        <circle id="XMLID_11_" fill="#FFFFFF" cx="12.4110619" cy="12.4110619" r="12.4110619"></circle>
                                        <path d="M11.9422566,17.8544248 L12.9163717,17.8544248 C12.9163717,17.8544248 13.2106195,17.8221239 13.3608407,17.660177 C13.499115,17.5115044 13.4946903,17.2323009 13.4946903,17.2323009 C13.4946903,17.2323009 13.4756637,15.9252212 14.0823009,15.7327434 C14.6803097,15.5431416 15.4482301,16.9960177 16.2621681,17.554646 C16.8776549,17.9774336 17.345354,17.8847345 17.345354,17.8847345 L19.5216814,17.8544248 C19.5216814,17.8544248 20.660177,17.784292 20.120354,16.8891593 C20.0761062,16.8159292 19.8059735,16.2269912 18.5022124,15.0168142 C17.1376106,13.7502212 17.320354,13.9550885 18.9641593,11.7641593 C19.9652655,10.4298673 20.3654867,9.61526549 20.2404867,9.26637168 C20.1212389,8.9340708 19.3849558,9.02190265 19.3849558,9.02190265 L16.9345133,9.03716814 C16.9345133,9.03716814 16.7528761,9.01238938 16.6181416,9.09292035 C16.4865044,9.17190265 16.4017699,9.35597345 16.4017699,9.35597345 C16.4017699,9.35597345 16.0139381,10.3884956 15.4966814,11.2665929 C14.405531,13.119469 13.9692478,13.2172566 13.7909292,13.1022124 C13.3761062,12.8340708 13.479646,12.025 13.479646,11.4502212 C13.479646,9.65464602 13.7519912,8.90597345 12.9493363,8.71216814 C12.6829646,8.64778761 12.4869469,8.60530973 11.8057522,8.59845133 C10.9314159,8.58938053 10.1913717,8.60110619 9.77234513,8.80641593 C9.49358407,8.94292035 9.27853982,9.24712389 9.40951327,9.26460177 C9.57146018,9.28628319 9.93827434,9.36349558 10.1327434,9.62831858 C10.3838496,9.9699115 10.375,10.7371681 10.375,10.7371681 C10.375,10.7371681 10.5192478,12.850885 10.0380531,13.1134956 C9.70774336,13.2935841 9.25464602,12.925885 8.28185841,11.2449115 C7.78340708,10.3838496 7.40707965,9.43207965 7.40707965,9.43207965 C7.40707965,9.43207965 7.33451327,9.25420354 7.2050885,9.1590708 C7.04800885,9.04380531 6.82853982,9.00707965 6.82853982,9.00707965 L4.5,9.02234513 C4.5,9.02234513 4.15044248,9.03207965 4.02212389,9.1840708 C3.9079646,9.31924779 4.0130531,9.59889381 4.0130531,9.59889381 C4.0130531,9.59889381 5.83606195,13.8639381 7.90022124,16.0132743 C9.79292035,17.9838496 11.9422566,17.8544248 11.9422566,17.8544248 L11.9422566,17.8544248 Z" id="Shape" fill="#1D437F"></path>
                                    </g>
                                </g>
                            </g>
                        </g>
                    </g>
                </g>
            </g>
        </g>
    </g>
</svg>